first trial
nRows=39
nColumns=38

# SIMM Motion File Header:
name Sujet_07_velo_60.mvnx
datacolumns 38
datarows 39
otherdata 1
range 0.0000 0.6340
endheader
time pelvis_tilt  pelvis_list  pelvis_rotation  pelvis_tx  pelvis_ty  pelvis_tz  hip_flexion_r  hip_adduction_r  hip_rotation_r  knee_angle_r  ankle_angle_r  subtalar_angle_r  mtp_angle_r  hip_flexion_l  hip_adduction_l  hip_rotation_l  knee_angle_l  ankle_angle_l  subtalar_angle_l  mtp_angle_l  lumbar_extension  lumbar_bending  lumbar_rotation  arm_flex_r  arm_add_r  arm_rot_r  elbow_flex_r  pro_sup_r  wrist_flex_r  wrist_dev_r  arm_flex_l  arm_add_l  arm_rot_l  elbow_flex_l  pro_sup_l  wrist_flex_l  wrist_dev_l
0.0000	-29.4609	-2.6625	-55.8696	0.0000	1.2500	-0.0000	98.1554	1.8298	1.5778	95.4804	5.4582	-4.8962	0.0000	53.5636	-11.3967	-4.9437	37.6118	-13.9487	3.4551	0.0000	-15.8586	-1.8334	1.2329	101.7043	-0.0209	24.2636	11.2158	66.9936	-48.7100	-42.4150	102.0071	-11.3094	42.3905	7.0350	44.9774	-40.9794	-43.8917	
0.0170	-28.9916	-2.3969	-55.4726	0.0000	1.2500	-0.0000	96.9571	1.7216	1.2902	93.0605	6.0500	-4.9950	-0.0000	53.8326	-11.3903	-4.8334	40.8266	-12.7896	3.3483	-0.0000	-16.1107	-1.8555	1.1315	101.4286	-0.0743	24.2189	11.2179	66.9443	-48.7210	-42.4793	101.8064	-11.2843	42.2811	7.0069	45.1461	-40.9460	-43.8651	
0.0340	-28.5207	-2.1365	-55.0799	0.0000	1.2500	-0.0000	95.7603	1.6146	0.9946	90.6417	6.6406	-5.1102	0.0000	54.1018	-11.3819	-4.7246	44.0437	-11.6305	3.2346	-0.0000	-16.3630	-1.8765	1.0303	101.1528	-0.1270	24.1739	11.2199	66.8949	-48.7320	-42.5436	101.6057	-11.2596	42.1718	6.9785	45.3148	-40.9126	-43.8385	
0.0500	-28.1099	-1.8866	-54.7043	0.0000	1.2500	-0.0000	94.4523	1.4178	0.6303	88.0643	7.1359	-5.2832	-0.0000	54.6239	-11.3771	-4.5569	47.4337	-10.5713	3.2327	-0.0000	-16.5865	-1.8888	0.9193	100.9417	-0.1657	24.1284	11.2061	66.8639	-48.7309	-42.5866	101.4688	-11.2559	42.1278	6.9607	45.4098	-40.8795	-43.8071	
0.0670	-27.7944	-1.6518	-54.3627	0.0000	1.2500	-0.0000	93.0140	1.0870	0.1651	85.2841	7.5770	-5.5901	-0.0000	55.5263	-11.3782	-4.3169	51.0914	-9.6686	3.3967	0.0000	-16.7672	-1.8880	0.7942	100.8334	-0.1858	24.1007	11.1660	66.8578	-48.7106	-42.5972	101.4318	-11.2940	42.2264	6.9653	45.3440	-40.8403	-43.7650	
0.0840	-27.5393	-1.4250	-54.0357	0.0000	1.2500	-0.0000	91.4625	0.6745	-0.3778	82.3431	7.9265	-5.9368	0.0000	56.6817	-11.3757	-4.0220	54.9203	-8.8606	3.6697	0.0000	-16.9187	-1.8790	0.6591	100.7899	-0.1928	24.0726	11.1101	66.8701	-48.6783	-42.5864	101.4586	-11.3527	42.3902	6.9807	45.2046	-40.8013	-43.7180	
0.1000	-27.3017	-1.1942	-53.6830	0.0000	1.2500	-0.0000	89.7399	0.2373	-0.9806	79.2067	7.9705	-6.1092	0.0000	57.9610	-11.3537	-3.6603	58.8042	-8.0699	4.0050	0.0000	-17.0536	-1.8683	0.5171	100.7621	-0.1887	23.9897	11.0540	66.8995	-48.6429	-42.5665	101.5051	-11.3896	42.4527	6.9824	45.1795	-40.7819	-43.6792	
0.1170	-27.0639	-0.9474	-53.2879	0.0000	1.2500	-0.0000	87.7977	-0.2122	-1.7160	75.8085	7.6356	-5.9852	-0.0000	59.3303	-11.3042	-3.2376	62.7639	-7.2513	4.4199	-0.0000	-17.1763	-1.8623	0.3667	100.7434	-0.1634	23.8074	11.0031	66.9566	-48.6013	-42.5301	101.5679	-11.3852	42.2916	6.9528	45.4035	-40.7891	-43.6497	
0.1340	-26.8431	-0.6967	-52.8670	0.0000	1.2500	-0.0000	85.6837	-0.6721	-2.5239	72.2102	6.9908	-5.6930	0.0000	60.8233	-11.2263	-2.7535	66.7789	-6.4510	4.9009	-0.0000	-17.2824	-1.8548	0.2093	100.7406	-0.1272	23.5703	10.9523	67.0309	-48.5565	-42.4846	101.6507	-11.3595	42.0292	6.9094	45.7418	-40.8157	-43.6283	
0.1500	-26.6488	-0.4670	-52.4285	0.0000	1.2500	-0.0000	83.4854	-1.1109	-3.1834	68.5732	6.0349	-5.4008	-0.0000	62.4112	-11.1137	-2.1869	70.6711	-5.7320	5.3568	-0.0000	-17.3711	-1.8326	0.0520	100.7252	-0.1131	23.3574	10.9012	67.0890	-48.5263	-42.4644	101.7195	-11.3293	41.8648	6.8807	45.9779	-40.8595	-43.6239	
0.1670	-26.4859	-0.2714	-51.9767	0.0000	1.2500	-0.0000	81.2197	-1.5246	-3.6095	64.9331	4.7204	-5.1651	0.0000	64.0926	-10.9645	-1.5009	74.3996	-5.1310	5.7667	-0.0000	-17.4406	-1.7894	-0.1023	100.6791	-0.1314	23.1923	10.8512	67.1283	-48.5206	-42.4796	101.7676	-11.2993	41.9029	6.8727	45.9940	-40.9176	-43.6429	
0.1840	-26.3497	-0.0959	-51.5064	0.0000	1.2500	-0.0000	78.8692	-1.9289	-3.8913	61.2629	3.0957	-4.9338	0.0000	65.8675	-10.7664	-0.7378	78.0056	-4.6128	6.1534	0.0000	-17.4926	-1.7318	-0.2566	100.6201	-0.1716	23.0513	10.8004	67.1513	-48.5295	-42.5201	101.8011	-11.2645	42.0388	6.8799	45.9079	-40.9930	-43.6788	
0.2000	-26.2351	0.0757	-51.0119	0.0000	1.2500	-0.0000	76.4707	-2.3332	-4.0667	57.6328	1.3046	-4.7098	-0.0000	67.7087	-10.5009	0.0041	81.4334	-4.1321	6.4921	-0.0000	-17.5311	-1.6667	-0.4133	100.5725	-0.2357	22.9426	10.7427	67.1326	-48.5410	-42.5912	101.8045	-11.2272	42.1581	6.9138	45.8558	-41.0921	-43.7218	
0.2170	-26.1452	0.2491	-50.4824	0.0000	1.2500	-0.0000	74.0095	-2.7569	-4.1556	54.0199	-0.6466	-4.4886	0.0000	69.6214	-10.1507	0.6901	84.6784	-3.7005	6.7961	-0.0000	-17.5558	-1.5941	-0.5755	100.5628	-0.3296	22.8951	10.6588	67.0439	-48.5510	-42.7132	101.7709	-11.1918	42.2063	6.9927	45.9071	-41.2351	-43.7734	
0.2340	-26.0766	0.4190	-49.9284	0.0000	1.2500	-0.0000	71.4985	-3.1889	-4.1447	50.4463	-2.7644	-4.2676	-0.0000	71.5960	-9.7322	1.3435	87.7445	-3.3079	7.0545	0.0000	-17.5669	-1.5143	-0.7403	100.5643	-0.4477	22.8798	10.5679	66.9136	-48.5635	-42.8657	101.7073	-11.1538	42.2379	7.0979	45.9923	-41.4019	-43.8320	
0.2500	-26.0146	0.5850	-49.3754	0.0000	1.2500	-0.0000	69.0169	-3.5945	-4.0158	47.0471	-4.9253	-4.0489	-0.0000	73.5830	-9.2860	1.9567	90.5879	-2.8768	7.2052	-0.0000	-17.5701	-1.4345	-0.9004	100.5216	-0.5748	22.8186	10.5222	66.8015	-48.5786	-42.9923	101.6196	-11.1022	42.3024	7.1865	46.0392	-41.5392	-43.8833	
0.2670	-25.9532	0.7423	-48.8297	0.0000	1.2500	-0.0000	66.5515	-3.9795	-3.7442	43.8082	-7.1401	-3.7958	-0.0000	75.5871	-8.8308	2.5137	93.2238	-2.3929	7.2233	-0.0000	-17.5660	-1.3562	-1.0515	100.4102	-0.7124	22.6495	10.5584	66.7456	-48.5997	-43.0661	101.5017	-11.0285	42.4451	7.2400	45.9990	-41.6178	-43.9222	
0.2840	-25.8986	0.8959	-48.2852	0.0000	1.2500	-0.0000	64.1147	-4.3538	-3.3499	40.7373	-9.3995	-3.5349	0.0000	77.6036	-8.3518	3.0285	95.6370	-1.8720	7.1351	0.0000	-17.5538	-1.2780	-1.1981	100.2540	-0.8581	22.4343	10.6397	66.7077	-48.6234	-43.1140	101.3594	-10.9414	42.6206	7.2774	45.9206	-41.6670	-43.9537	
0.3000	-25.8540	1.0577	-47.7504	0.0000	1.2500	-0.0000	61.8255	-4.6904	-2.8730	38.0024	-11.5468	-3.3651	-0.0000	79.5710	-7.8400	3.5439	97.7381	-1.2823	6.9548	-0.0000	-17.5374	-1.2027	-1.3466	100.0707	-0.9911	22.2806	10.7083	66.6328	-48.6387	-43.1606	101.2169	-10.8561	42.7422	7.3122	45.8790	-41.7208	-43.9783	
0.3170	-25.8152	1.2360	-47.2204	0.0000	1.2500	-0.0000	59.6997	-4.9750	-2.2487	35.6260	-13.5967	-3.3376	0.0000	81.4952	-7.2786	4.0885	99.5195	-0.6205	6.6987	-0.0000	-17.5179	-1.1292	-1.5041	99.8443	-1.0955	22.2594	10.7319	66.4735	-48.6376	-43.2165	101.0848	-10.7785	42.7656	7.3492	45.9088	-41.8023	-43.9974	
0.3340	-25.7863	1.4229	-46.7000	0.0000	1.2500	-0.0000	57.7213	-5.2340	-1.5308	33.5843	-15.5301	-3.3875	0.0000	83.3704	-6.6868	4.6332	100.9892	0.1092	6.3521	-0.0000	-17.4940	-1.0587	-1.6636	99.5916	-1.1879	22.3000	10.7425	66.2772	-48.6281	-43.2711	100.9528	-10.7022	42.7350	7.3832	45.9751	-41.8884	-44.0097	
0.3500	-25.7849	1.6069	-46.2123	0.0000	1.2500	-0.0000	55.9623	-5.4876	-0.9331	31.9807	-17.1382	-3.4478	0.0000	85.1196	-6.1134	5.1417	102.0812	0.9275	5.8817	0.0000	-17.4658	-0.9977	-1.8099	99.3796	-1.2964	22.2974	10.7783	66.1311	-48.6238	-43.3167	100.8136	-10.6236	42.6952	7.4127	46.0489	-41.9448	-44.0115	
0.3670	-25.8198	1.7981	-45.7464	0.0000	1.2500	-0.0000	54.4314	-5.7427	-0.4916	30.8328	-18.3690	-3.4987	-0.0000	86.7429	-5.5576	5.6419	102.7759	1.8638	5.2456	-0.0000	-17.4338	-0.9487	-1.9409	99.2548	-1.4411	22.1800	10.8714	66.0999	-48.6351	-43.3505	100.6602	-10.5416	42.6488	7.4329	46.1370	-41.9394	-43.9942	
0.3840	-25.8825	1.9874	-45.3123	0.0000	1.2500	-0.0000	53.1219	-5.9814	-0.1610	30.1285	-19.2746	-3.5676	-0.0000	88.2428	-5.0279	6.1178	103.0928	2.8876	4.4865	0.0000	-17.3976	-0.9090	-2.0587	99.1701	-1.6020	22.0191	10.9899	66.1188	-48.6517	-43.3754	100.4997	-10.4573	42.5934	7.4486	46.2324	-41.9042	-43.9662	
0.4000	-25.9649	2.1343	-44.9658	0.0000	1.2500	-0.0000	52.0848	-6.1747	-0.0285	29.9308	-19.8044	-3.6710	0.0000	89.5479	-4.5935	6.4778	103.0242	3.9307	3.6962	-0.0000	-17.3552	-0.8771	-2.1553	99.0524	-1.7476	21.9244	11.0763	66.0808	-48.6558	-43.3930	100.3456	-10.3694	42.5658	7.4725	46.2858	-41.9006	-43.9498	
0.4170	-26.0742	2.2164	-44.7375	0.0000	1.2500	-0.0000	51.3372	-6.3134	-0.1254	30.2609	-19.9310	-3.8534	-0.0000	90.6602	-4.2931	6.7284	102.5663	5.0158	2.8580	0.0000	-17.3011	-0.8517	-2.2264	98.8364	-1.8698	21.9607	11.0996	65.9146	-48.6368	-43.4012	100.2095	-10.2747	42.6003	7.5123	46.2585	-41.9640	-43.9608	
0.4340	-26.2046	2.2558	-44.5970	0.0000	1.2500	-0.0000	50.8645	-6.4007	-0.4090	31.0975	-19.6827	-4.0837	0.0000	91.5804	-4.0975	6.8820	101.7237	6.1214	1.9913	-0.0000	-17.2409	-0.8339	-2.2764	98.5880	-1.9772	22.0634	11.0906	65.6913	-48.6053	-43.4020	100.0799	-10.1763	42.6628	7.5609	46.1893	-42.0591	-43.9834	
0.4500	-26.3300	2.2799	-44.5064	0.0000	1.2500	-0.0000	50.6706	-6.4274	-0.8554	32.4376	-19.0932	-4.2692	0.0000	92.2349	-3.9777	6.8582	100.5017	7.1138	1.2438	-0.0000	-17.1898	-0.8264	-2.3096	98.4309	-2.0634	22.1474	11.0844	65.5181	-48.5764	-43.4030	99.9356	-10.0814	42.6874	7.6082	46.1443	-42.1413	-43.9931	
0.4670	-26.4516	2.3036	-44.4482	0.0000	1.2500	-0.0000	50.7750	-6.3778	-1.5286	34.3204	-18.0682	-4.4031	0.0000	92.6129	-3.9375	6.6310	98.8735	7.9698	0.6644	0.0000	-17.1505	-0.8330	-2.3289	98.4482	-2.1230	22.1694	11.0984	65.4504	-48.5573	-43.4107	99.7502	-9.9811	42.6268	7.6546	46.1628	-42.2004	-43.9776	
0.4840	-26.5685	2.3115	-44.4403	0.0000	1.2500	-0.0000	51.1602	-6.2752	-2.3632	36.6985	-16.7023	-4.5031	-0.0000	92.7256	-3.9757	6.2309	96.8655	8.7146	0.2115	-0.0000	-17.1204	-0.8498	-2.3315	98.5569	-2.1616	22.1731	11.1155	65.4328	-48.5408	-43.4185	99.5502	-9.8843	42.5284	7.6998	46.2056	-42.2466	-43.9491	
0.5000	-26.6513	2.2849	-44.4989	0.0000	1.2500	-0.0000	51.7727	-6.1696	-3.1433	39.4449	-15.3106	-4.5106	0.0000	92.5331	-4.0538	5.6585	94.5641	9.2876	-0.1133	0.0000	-17.1060	-0.8683	-2.3137	98.6313	-2.1892	22.2042	11.1197	65.4058	-48.5194	-43.4144	99.3946	-9.8252	42.4680	7.7323	46.2208	-42.2656	-43.9199	
0.5170	-26.6900	2.2092	-44.6329	0.0000	1.2500	-0.0000	52.6121	-6.0727	-3.8611	42.5911	-13.9073	-4.3784	0.0000	92.0149	-4.1569	4.8452	91.9731	9.6736	-0.2802	-0.0000	-17.1086	-0.8849	-2.2720	98.6019	-2.2097	22.2974	11.1072	65.3320	-48.4899	-43.3953	99.3084	-9.8275	42.5010	7.7547	46.1731	-42.2534	-43.8968	
0.5340	-26.6944	2.0990	-44.8337	0.0000	1.2500	-0.0000	53.6760	-5.9795	-4.5289	46.1109	-12.4674	-4.1556	-0.0000	91.1924	-4.2863	3.8551	89.0924	9.8886	-0.3384	0.0000	-17.1271	-0.9032	-2.2099	98.5382	-2.2190	22.4181	11.0816	65.2490	-48.4556	-43.3642	99.2664	-9.8676	42.5719	7.7643	46.0979	-42.2140	-43.8731	
0.5500	-26.6646	1.9784	-45.0912	0.0000	1.2500	-0.0000	54.9072	-5.9048	-4.9611	49.8003	-11.2514	-3.9291	-0.0000	90.0885	-4.4292	2.8867	86.0034	9.9187	-0.4078	-0.0000	-17.1640	-0.9247	-2.1344	98.5243	-2.2146	22.5090	11.0374	65.2096	-48.4189	-43.3184	99.2515	-9.9093	42.5902	7.7422	46.0502	-42.1454	-43.8413	
0.5670	-26.5933	1.8584	-45.4040	0.0000	1.2500	-0.0000	56.3151	-5.8488	-5.0657	53.6605	-10.3734	-3.7564	-0.0000	88.6848	-4.5711	1.9802	82.7009	9.7613	-0.5453	-0.0000	-17.2270	-0.9490	-2.0481	98.6193	-2.1961	22.5391	10.9689	65.2470	-48.3764	-43.2492	99.2656	-9.9390	42.5088	7.6813	46.0649	-42.0354	-43.7938	
0.5840	-26.4874	1.7292	-45.7732	0.0000	1.2500	-0.0000	57.8911	-5.7911	-4.9384	57.6951	-9.7225	-3.5878	0.0000	87.0005	-4.7148	1.0859	79.1891	9.4198	-0.6942	-0.0000	-17.3087	-0.9767	-1.9485	98.7639	-2.1638	22.5395	10.8820	65.3281	-48.3316	-43.1652	99.3067	-9.9707	42.3749	7.5890	46.1071	-41.8961	-43.7381	
0.6000	-26.3678	1.5837	-46.1923	0.0000	1.2500	-0.0000	59.5514	-5.7102	-4.6743	61.7042	-9.2299	-3.3451	0.0000	85.1139	-4.8823	0.2673	75.5604	8.8895	-0.7987	-0.0000	-17.3891	-1.0104	-1.8354	98.8641	-2.1160	22.5459	10.7887	65.4063	-48.2970	-43.0890	99.3516	-10.0089	42.2393	7.4672	46.1274	-41.7616	-43.6892	
0.6170	-26.2308	1.4271	-46.6587	0.0000	1.2500	-0.0000	61.2834	-5.6047	-4.2718	65.6811	-8.9207	-2.9894	0.0000	83.0170	-5.0765	-0.4428	71.8194	8.1658	-0.8494	-0.0000	-17.4642	-1.0524	-1.7108	98.8666	-2.0444	22.5733	10.6847	65.4627	-48.2802	-43.0275	99.3880	-10.0567	42.1126	7.2987	46.1033	-41.6341	-43.6453	
0.6340	-26.0793	1.2551	-47.1745	0.0000	1.2500	-0.0000	63.1005	-5.4585	-3.7399	69.6319	-8.7720	-2.5475	0.0000	80.7155	-5.2925	-1.0908	67.9603	7.2539	-0.8543	0.0000	-17.5381	-1.1004	-1.5727	98.8245	-1.9575	22.6065	10.5743	65.5160	-48.2737	-42.9738	99.4281	-10.1110	41.9843	7.1004	46.0569	-41.5112	-43.6079	
